<svg width="10" height="10" viewBox="0 0 10 10" fill="none" xmlns="http://www.w3.org/2000/svg">
<path d="M6.09166 1.10916C6.17075 1.13129 6.2447 1.16879 6.30929 1.21951C6.37388 1.27023 6.42783 1.33319 6.46808 1.40478C6.50832 1.47636 6.53406 1.55518 6.54383 1.63672C6.5536 1.71826 6.5472 1.80093 6.525 1.88L4.67875 8.45791C4.63399 8.61754 4.52766 8.75285 4.38314 8.83408C4.23862 8.9153 4.06775 8.93579 3.90812 8.89104C3.7485 8.84628 3.61318 8.73995 3.53196 8.59543C3.45073 8.45091 3.43024 8.28004 3.475 8.12041L5.32125 1.54166C5.34342 1.46261 5.38095 1.38871 5.43169 1.32417C5.48243 1.25962 5.54539 1.20571 5.61698 1.16551C5.68856 1.12531 5.76736 1.0996 5.84888 1.08986C5.9304 1.08012 6.01304 1.08654 6.09208 1.10875L6.09166 1.10916ZM3.15 2.79041C3.26704 2.9076 3.33278 3.06646 3.33278 3.23208C3.33278 3.39771 3.26704 3.55656 3.15 3.67375L1.825 5L3.15083 6.32583C3.26802 6.44308 3.33384 6.60208 3.3338 6.76785C3.33376 6.93363 3.26787 7.0926 3.15062 7.20979C3.03337 7.32698 2.87437 7.3928 2.7086 7.39276C2.54283 7.39272 2.38386 7.32683 2.26666 7.20958L0.498747 5.44166C0.381705 5.32448 0.315964 5.16562 0.315964 5C0.315964 4.83437 0.381705 4.67552 0.498747 4.55833L2.26625 2.79041C2.32429 2.73233 2.39321 2.68626 2.46906 2.65483C2.54492 2.62339 2.62622 2.60721 2.70833 2.60721C2.79044 2.60721 2.87175 2.62339 2.9476 2.65483C3.02345 2.68626 3.09196 2.73233 3.15 2.79041ZM6.85 3.67375C6.78859 3.61653 6.73934 3.54753 6.70518 3.47086C6.67102 3.3942 6.65265 3.31144 6.65117 3.22752C6.64969 3.1436 6.66513 3.06024 6.69656 2.98242C6.728 2.90459 6.77478 2.8339 6.83413 2.77455C6.89348 2.7152 6.96418 2.66841 7.042 2.63698C7.11982 2.60554 7.20318 2.59011 7.2871 2.59159C7.37102 2.59307 7.45378 2.61144 7.53045 2.6456C7.60711 2.67976 7.67611 2.72901 7.73333 2.79041L9.50125 4.55791C9.61842 4.67512 9.68424 4.83406 9.68424 4.99979C9.68424 5.16552 9.61842 5.32446 9.50125 5.44166L7.73375 7.20958C7.67572 7.26764 7.60682 7.31369 7.531 7.34512C7.45517 7.37655 7.37389 7.39274 7.29181 7.39276C7.20973 7.39278 7.12844 7.37663 7.0526 7.34524C6.97676 7.31384 6.90784 7.26782 6.84979 7.20979C6.79173 7.15176 6.74568 7.08287 6.71425 7.00704C6.68282 6.93121 6.66663 6.84994 6.66661 6.76785C6.66659 6.68577 6.68274 6.60449 6.71413 6.52864C6.74553 6.4528 6.79155 6.38389 6.84958 6.32583L8.17541 5L6.85 3.67375Z" fill="white"/>
</svg>
