<svg width="100" height="100" viewBox="0 0 100 100" fill="none" xmlns="http://www.w3.org/2000/svg">
<rect width="100" height="100" rx="50" fill="#0E1111"/>
<path d="M50.0333 32.2026V57.1667C50.0333 58.2333 50.3615 58.9923 51.0179 59.4436C51.688 59.8812 52.5496 60.1 53.6026 60.1C54.2453 60.1 54.8607 60.0316 55.4487 59.8949C56.0504 59.7581 56.6453 59.5735 57.2333 59.341L58.1564 61.8641C57.5684 62.1513 56.8368 62.4043 55.9615 62.6231C55.1 62.8556 54.1222 62.9718 53.0282 62.9718C51.1137 62.9718 49.5615 62.4453 48.3718 61.3923C47.1821 60.3256 46.5872 58.8556 46.5872 56.9821V34.9308H39.9615V32.2026H50.0333Z" fill="white"/>
</svg>
