<svg width="25" height="25" viewBox="0 0 25 25" fill="none" xmlns="http://www.w3.org/2000/svg">
<path fill-rule="evenodd" clip-rule="evenodd" d="M4.6875 1.5625C3.8587 1.5625 3.06384 1.89174 2.47779 2.47779C1.89174 3.06384 1.5625 3.8587 1.5625 4.6875V20.3125C1.5625 21.1413 1.89174 21.9362 2.47779 22.5222C3.06384 23.1083 3.8587 23.4375 4.6875 23.4375H20.3125C21.1413 23.4375 21.9362 23.1083 22.5222 22.5222C23.1083 21.9362 23.4375 21.1413 23.4375 20.3125V4.6875C23.4375 3.8587 23.1083 3.06384 22.5222 2.47779C21.9362 1.89174 21.1413 1.5625 20.3125 1.5625H4.6875ZM6.40938 8.27656C6.90458 8.27656 7.37951 8.07984 7.72968 7.72968C8.07984 7.37951 8.27656 6.90458 8.27656 6.40938C8.27656 5.91417 8.07984 5.43924 7.72968 5.08907C7.37951 4.73891 6.90458 4.54219 6.40938 4.54219C5.91417 4.54219 5.43924 4.73891 5.08907 5.08907C4.73891 5.43924 4.54219 5.91417 4.54219 6.40938C4.54219 6.90458 4.73891 7.37951 5.08907 7.72968C5.43924 8.07984 5.91417 8.27656 6.40938 8.27656ZM7.97188 20.0203V9.74063H4.84687V20.0203H7.97188ZM10.0469 9.74063H13.1719V11.1172C13.6328 10.3953 14.6453 9.42344 16.5281 9.42344C18.775 9.42344 19.9953 10.9125 19.9953 13.7453C19.9953 13.8812 20.0078 14.5016 20.0078 14.5016V20.0188H16.8828V14.5031C16.8828 13.7453 16.7234 12.2562 15.0391 12.2562C13.3531 12.2562 13.2109 14.1281 13.1719 15.3531V20.0188H10.0469V9.74063Z" fill="white"/>
</svg>
